<svg fill="#000000" xmlns="http://www.w3.org/2000/svg"  viewBox="0 0 100 100" width="400px" height="400px"><path d="M 62.984375 17 A 1.0001 1.0001 0 0 0 62.292969 17.292969 L 55.292969 24.292969 A 1.0001 1.0001 0 0 0 55.292969 25.707031 L 64.585938 35 L 37 35 C 23.774647 35 13 45.775657 13 59 C 13 72.224343 23.774647 83 37 83 L 46 83 A 1.0001 1.0001 0 0 0 47 82 L 47 72 A 1.0001 1.0001 0 0 0 46 71 L 37 71 C 30.374411 71 25 65.625589 25 59 C 25 52.374411 30.374411 47 37 47 L 64.585938 47 L 55.292969 56.292969 A 1.0001 1.0001 0 0 0 55.292969 57.707031 L 62.292969 64.707031 A 1.0001 1.0001 0 0 0 63.707031 64.707031 L 79.707031 48.707031 L 86.707031 41.707031 A 1.0001 1.0001 0 0 0 86.707031 40.292969 L 79.707031 33.292969 L 63.707031 17.292969 A 1.0001 1.0001 0 0 0 62.984375 17 z M 63 19.414062 L 78.292969 34.707031 L 84.585938 41 L 78.292969 47.292969 L 63 62.585938 L 57.414062 57 L 67.707031 46.707031 A 1.0001 1.0001 0 0 0 67 45 L 37 45 C 29.289589 45 23 51.289589 23 59 C 23 66.710411 29.289589 73 37 73 L 45 73 L 45 81 L 37 81 C 24.859353 81 15 71.139657 15 59 C 15 46.860343 24.859353 37 37 37 L 67 37 A 1.0001 1.0001 0 0 0 67.707031 35.292969 L 57.414062 25 L 63 19.414062 z M 63.994141 24.994141 A 0.50005 0.50005 0 0 0 63.646484 25.853516 L 68.646484 30.853516 A 0.50005 0.50005 0 1 0 69.353516 30.146484 L 64.353516 25.146484 A 0.50005 0.50005 0 0 0 63.994141 24.994141 z M 72.994141 33.994141 A 0.50005 0.50005 0 0 0 72.646484 34.853516 L 75.146484 37.353516 A 0.50005 0.50005 0 1 0 75.853516 36.646484 L 73.353516 34.146484 A 0.50005 0.50005 0 0 0 72.994141 33.994141 z M 77.994141 38.994141 A 0.50005 0.50005 0 0 0 77.646484 39.853516 L 79.146484 41.353516 A 0.50005 0.50005 0 1 0 79.853516 40.646484 L 78.353516 39.146484 A 0.50005 0.50005 0 0 0 77.994141 38.994141 z M 74.990234 44.996094 A 0.50005 0.50005 0 0 0 74.646484 45.146484 L 63.646484 56.146484 A 0.50005 0.50005 0 1 0 64.353516 56.853516 L 75.353516 45.853516 A 0.50005 0.50005 0 0 0 74.990234 44.996094 z"/></svg>