<svg fill="#000000" xmlns="http://www.w3.org/2000/svg"  viewBox="0 0 100 100" width="400px" height="400px"><path d="M 36.984375 17 A 1.0001 1.0001 0 0 0 36.292969 17.292969 L 20.292969 33.292969 L 13.292969 40.292969 A 1.0001 1.0001 0 0 0 13.292969 41.707031 L 20.292969 48.707031 L 36.292969 64.707031 A 1.0001 1.0001 0 0 0 37.707031 64.707031 L 44.707031 57.707031 A 1.0001 1.0001 0 0 0 44.707031 56.292969 L 35.414062 47 L 63 47 C 69.625589 47 75 52.374411 75 59 C 75 65.625589 69.625589 71 63 71 L 54 71 A 1.0001 1.0001 0 0 0 53 72 L 53 82 A 1.0001 1.0001 0 0 0 54 83 L 63 83 C 76.225353 83 87 72.224343 87 59 C 87 45.775657 76.225353 35 63 35 L 35.414062 35 L 44.707031 25.707031 A 1.0001 1.0001 0 0 0 44.707031 24.292969 L 37.707031 17.292969 A 1.0001 1.0001 0 0 0 36.984375 17 z M 37 19.414062 L 42.585938 25 L 32.292969 35.292969 A 1.0001 1.0001 0 0 0 33 37 L 63 37 C 75.140647 37 85 46.860343 85 59 C 85 71.139657 75.140647 81 63 81 L 55 81 L 55 73 L 63 73 C 70.710411 73 77 66.710411 77 59 C 77 51.289589 70.710411 45 63 45 L 33 45 A 1.0001 1.0001 0 0 0 32.292969 46.707031 L 42.585938 57 L 37 62.585938 L 21.707031 47.292969 L 15.414062 41 L 21.707031 34.707031 L 37 19.414062 z M 35.990234 24.996094 A 0.50005 0.50005 0 0 0 35.646484 25.146484 L 30.646484 30.146484 A 0.50005 0.50005 0 1 0 31.353516 30.853516 L 36.353516 25.853516 A 0.50005 0.50005 0 0 0 35.990234 24.996094 z M 26.990234 33.996094 A 0.50005 0.50005 0 0 0 26.646484 34.146484 L 24.146484 36.646484 A 0.50005 0.50005 0 1 0 24.853516 37.353516 L 27.353516 34.853516 A 0.50005 0.50005 0 0 0 26.990234 33.996094 z M 21.990234 38.996094 A 0.50005 0.50005 0 0 0 21.646484 39.146484 L 20.146484 40.646484 A 0.50005 0.50005 0 1 0 20.853516 41.353516 L 22.353516 39.853516 A 0.50005 0.50005 0 0 0 21.990234 38.996094 z M 24.994141 44.994141 A 0.50005 0.50005 0 0 0 24.646484 45.853516 L 35.646484 56.853516 A 0.50005 0.50005 0 1 0 36.353516 56.146484 L 25.353516 45.146484 A 0.50005 0.50005 0 0 0 24.994141 44.994141 z"/></svg>