<svg width="22" height="22" viewBox="0 0 22 22" fill="none" xmlns="http://www.w3.org/2000/svg">
<path fill-rule="evenodd" clip-rule="evenodd" d="M17.4163 9.16676C17.4163 5.44603 15.3647 2.86355 12.71 2.08811C12.6139 1.83932 12.4619 1.60804 12.2554 1.41398C11.5498 0.751006 10.4503 0.751006 9.74466 1.41398C9.53863 1.60755 9.38692 1.83817 9.29076 2.08624C6.63228 2.85804 4.58301 5.43501 4.58301 9.16676C4.58301 11.5812 4.09624 12.934 3.19514 13.9145C3.04449 14.0784 2.63633 14.4539 2.35983 14.7082L2.3598 14.7083L2.35977 14.7083C2.22896 14.8286 2.12762 14.9218 2.09698 14.9527L1.83301 15.2204V18.3463H7.41411C7.60282 19.3199 8.13105 19.9712 9.08631 20.5541C10.2614 21.2712 11.7388 21.2712 12.9139 20.5541C13.757 20.0397 14.3223 19.249 14.5516 18.3463H20.1663V15.2204L19.9024 14.9527C19.8746 14.9245 19.7774 14.8349 19.6503 14.7176L19.6503 14.7176L19.6502 14.7176L19.6501 14.7175C19.3745 14.4632 18.9584 14.0794 18.8054 13.9123C17.9037 12.9273 17.4163 11.5727 17.4163 9.16676ZM12.5921 18.3463H9.33054C9.46005 18.5873 9.68079 18.7692 10.0413 18.9892C10.63 19.3484 11.3702 19.3484 11.959 18.9892C12.2316 18.8228 12.4446 18.6027 12.5921 18.3463ZM17.4534 15.1502C17.6463 15.3609 18.0597 15.7461 18.3332 15.9977V16.513H3.66654V15.9981C3.93794 15.7495 4.3526 15.3646 4.54515 15.1551C5.76957 13.8229 6.41654 12.0248 6.41654 9.16677C6.41654 5.70168 8.55491 3.67812 10.9999 3.67812C13.4379 3.67812 15.5832 5.71212 15.5832 9.16677C15.5832 12.0156 16.2304 13.8143 17.4534 15.1502Z" fill="#43B104"/>
</svg>